<?xml version="1.0" encoding="utf-8"?>
<!-- Generator: Adobe Illustrator 16.0.0, SVG Export Plug-In . SVG Version: 6.00 Build 0)  -->
<!DOCTYPE svg PUBLIC "-//W3C//DTD SVG 1.1//EN" "http://www.w3.org/Graphics/SVG/1.1/DTD/svg11.dtd">
<svg version="1.1" id="Layer_1" xmlns="http://www.w3.org/2000/svg" xmlns:xlink="http://www.w3.org/1999/xlink" x="0px" y="0px"
	 width="1280px" height="800px" viewBox="0 0 1280 800" enable-background="new 0 0 1280 800" xml:space="preserve">
<path fill="none" stroke="#F7931E" stroke-width="5" stroke-miterlimit="10" d="M61.5-825.067c0,0,6.589-179.438,126.023-145.956
	c119.435,33.483,69.141,105.51,69.141,105.51L61.5-817V-825.067z"/>
<path fill="none" stroke="#F7931E" stroke-width="5" stroke-miterlimit="10" d="M92.5-800.067c0,0,6.589-179.438,126.023-145.956
	c119.435,33.483,69.141,105.51,69.141,105.51L92.5-792V-800.067z"/>
<polygon fill="none" stroke="#F7931E" stroke-width="4" stroke-miterlimit="10" points="1597,1271.584 1106.851,1244.597 
	1185.504,896.385 1597,820 "/>
<path fill="none" stroke="#F7931E" stroke-width="2" stroke-miterlimit="10" d="M-122,331c0,6.627-5.373,12-12,12h-151
	c-6.627,0-12-5.373-12-12V180c0-6.627,5.373-12,12-12h151c6.627,0,12,5.373,12,12V331z"/>
<text transform="matrix(1 0 0 1 -164.1577 -108.584)" font-family="'Trench-Thin'" font-size="270">AL</text>
<text transform="matrix(-0.9158 0.4017 -0.4017 -0.9158 1351.7363 977.6445)" fill="#F7931E" font-family="'Trench-Thin'" font-size="299.4628">E</text>
<text transform="matrix(1 0 0 1 315.8184 -33.3325)" font-family="'Gulim'" font-size="270">EL</text>
<path fill="#330066" d="M1683.681,372.991c1.957-38.807,14.022-77.572,18.775-116.162c4.479-36.379,16.721-106.369-18.323-132.23
	c-49.367-36.42-85.905,38.182-98.507,72.322c-11.165,30.249-26.563,68.464-17.926,101.156c4.724,17.881,19.03,30.106,25.473,46.931
	c9.841,25.692-0.459,32.692-18.46,47.033c-62.463,49.76,18.023,142.691,57.521,178.209c17.557,15.784,60.807,43.019,45.002,72.215
	c-17.503,32.326-78.587-1.91-98.443-14.185c-96.207-59.481-111.913-177.562-100.832-280.693
	c7.827-72.835,23.276-143.381,55.268-209.659c24.374-50.487,62.339-100.747,122.26-107.423c39.62-4.414,77.849,22.011,93.722,56.865
	c20.149,44.245,5.609,96.805-2.812,142.12c-6.127,32.971-13.164,66.59-12.888,100.279c0.555,67.865,42.93,94.749,102.051,114.312
	c25.654,8.488,104.473,31.339,66.676,71.33c-39.292,41.571-120.281,16.317-158.869-11.659
	C1692.609,466.945,1681.231,421.617,1683.681,372.991z"/>
<text transform="matrix(1 0 0 1 1057.8184 -166.4199)" fill="none" stroke="#330000" stroke-width="8" stroke-miterlimit="10" font-family="'BrowalliaNew'" font-size="270">AL</text>
<path d="M-186.714,384.491c2.16,0,3.78,1.62,3.78,3.51c0,2.16-1.62,3.78-3.78,3.78h-13.19c-30.781,0-56.161,25.38-56.161,56.161
	v8.37h94.902c1.89,0,3.51,1.62,3.51,3.51c0,2.16-1.62,3.78-3.51,3.78h-94.902v8.37c0,30.781,25.38,56.161,56.161,56.161h100.191
	c2.16,0,3.779,1.62,3.779,3.78c0,1.89-1.619,3.51-3.779,3.51h-100.191c-34.561,0-63.451-28.891-63.451-63.451v-24.03
	c0-34.29,28.621-63.451,63.451-63.451H-186.714z"/>
<path fill="#F7931E" d="M1534.25,1066.15c1.919-0.843,4.287,0.082,5.25,2.274c0.842,1.92-0.083,4.287-2.002,5.13l-45.249,19.85
	c-25.778,11.308-56.159-0.546-67.467-26.324l-45.113-102.841c-0.842-1.919,0.081-4.286,2-5.128c2.194-0.963,4.563-0.039,5.404,1.881
	l45.113,102.841c9.504,21.666,35.149,31.671,56.813,22.167l41.684-18.285L1534.25,1066.15z"/>
<radialGradient id="SVGID_1_" cx="463.2598" cy="1132.5391" r="248.8447" fx="709.0443" fy="1171.4449" gradientUnits="userSpaceOnUse">
	<stop  offset="0" style="stop-color:#1A002A"/>
	<stop  offset="0.4015" style="stop-color:#13002A"/>
	<stop  offset="1" style="stop-color:#0F002A"/>
</radialGradient>
<polygon fill="url(#SVGID_1_)" points="722,1371.078 204.52,1342.567 287.444,974.697 722,894 "/>
<text transform="matrix(-0.9158 0.4017 -0.4017 -0.9158 447.7363 1064.6445)" fill="#FFFFFF" font-family="'Trench-Thin'" font-size="299.4628">E</text>
<path fill="#FFFFFF" d="M630.25,1153.15c1.919-0.843,4.287,0.082,5.25,2.274c0.842,1.92-0.083,4.287-2.002,5.13l-45.249,19.85
	c-25.778,11.308-56.159-0.546-67.467-26.324l-45.113-102.841c-0.842-1.919,0.081-4.286,2-5.128c2.194-0.963,4.563-0.039,5.404,1.881
	l45.113,102.841c9.504,21.666,35.149,31.671,56.813,22.167l41.684-18.285L630.25,1153.15z"/>
<text transform="matrix(1 0 0 1 -456.6445 -26.0884)" font-family="'ArialMT'" font-size="21">Trench Thin</text>
<text transform="matrix(1 0 0 1 789.2598 -218.5371)" font-family="'Trench-Thin'" font-size="270">AL</text>
<path d="M-855.981,552.342"/>
<radialGradient id="SVGID_2_" cx="-1011.2412" cy="-540.9609" r="373.2993" fx="-692.3679" fy="-346.8678" gradientUnits="userSpaceOnUse">
	<stop  offset="0" style="stop-color:#1A002A"/>
	<stop  offset="0.638" style="stop-color:#1C002A"/>
	<stop  offset="0.7998" style="stop-color:#13002A"/>
	<stop  offset="1" style="stop-color:#0F002A"/>
</radialGradient>
<polygon fill="url(#SVGID_2_)" points="-784,-306.922 -1301.48,-335.433 -1218.556,-703.303 -784,-784 "/>
<g>
	<path fill="#FFFFFF" d="M-837.154-416.976c3.591,0,6.671,3.079,6.671,7.186c0,3.591-3.08,6.671-6.671,6.671h-84.679
		c-48.239,0-87.757-39.518-87.757-87.758v-192.449c0-3.593,3.079-6.673,6.671-6.673c4.105,0,7.185,3.08,7.185,6.673v192.449
		c0,40.544,33.359,73.901,73.901,73.901h78.005H-837.154z"/>
	<path fill="#FFFFFF" d="M-1157.819-406.923c0.174,0.394,0.409,0.767,0.685,1.079c1.108,1.256,2.778,2.09,4.464,2.09
		c2.565,0,4.544-0.888,5.57-3.457l31.231-74.789H-1006v-13h-104.736l67.742-162.479c2.567-6.157,7.59-11.186,13.234-15.292
		l9.712-4.125l9.277-1.413c1.728,0,3.02,0.124,4.681,0.354l4.655-11.903c-1.688-0.174-9.311-0.472-11.011-0.472
		c-8.724,0-14.873,1.797-22.57,6.415l-1.819,0.983c-8.212,5.13-13.856,12.316-17.45,21.042c-0.083,0.201-0.167,0.401-0.25,0.605
		c-0.088,0.21-0.175,0.419-0.262,0.631c-0.095,0.227-0.189,0.457-0.284,0.683c-0.105,0.256-0.212,0.51-0.317,0.765
		c-0.121,0.288-0.239,0.575-0.36,0.865c-0.138,0.331-0.274,0.659-0.412,0.988c-0.157,0.376-0.315,0.753-0.472,1.13
		c-0.18,0.429-0.357,0.859-0.538,1.286c-0.202,0.486-0.406,0.973-0.608,1.459c-0.229,0.546-0.457,1.091-0.684,1.637
		c-0.254,0.607-0.508,1.214-0.763,1.823c-0.278,0.67-0.559,1.34-0.839,2.012c-0.307,0.731-0.612,1.466-0.919,2.199
		c-0.33,0.794-0.662,1.591-0.995,2.385c-0.356,0.856-0.713,1.711-1.068,2.565c-0.381,0.913-0.762,1.826-1.142,2.74
		c-0.403,0.969-0.806,1.938-1.209,2.905c-0.423,1.019-0.848,2.038-1.271,3.057c-0.443,1.065-0.887,2.134-1.329,3.2
		c-0.462,1.11-0.924,2.22-1.385,3.332c-0.479,1.151-0.955,2.3-1.433,3.451c-0.493,1.188-0.987,2.374-1.479,3.56
		c-0.507,1.221-1.014,2.439-1.52,3.659c-0.519,1.249-1.036,2.498-1.556,3.748c-0.529,1.273-1.059,2.55-1.589,3.824
		c-0.539,1.299-1.08,2.599-1.619,3.898c-0.549,1.321-1.099,2.641-1.648,3.961c-0.557,1.34-1.115,2.68-1.674,4.021
		c-0.564,1.358-1.129,2.718-1.696,4.076c-0.572,1.374-1.146,2.751-1.719,4.124c-0.579,1.391-1.158,2.781-1.739,4.173
		c-0.587,1.403-1.174,2.81-1.76,4.214c-0.592,1.42-1.187,2.84-1.778,4.258c-0.6,1.433-1.197,2.863-1.795,4.295
		c-0.605,1.444-1.208,2.889-1.812,4.332c-0.609,1.455-1.218,2.91-1.826,4.366c-0.613,1.466-1.226,2.933-1.838,4.398
		c-0.616,1.475-1.234,2.948-1.851,4.424c-0.618,1.483-1.238,2.964-1.858,4.447c-0.621,1.49-1.243,2.979-1.864,4.468
		c-0.624,1.494-1.246,2.988-1.869,4.48c-0.624,1.498-1.247,2.996-1.871,4.492c-0.624,1.5-1.247,2.998-1.87,4.496
		c-0.623,1.497-1.245,2.995-1.867,4.493c-0.621,1.494-1.242,2.99-1.862,4.486c-0.618,1.49-1.236,2.981-1.854,4.474
		c-0.615,1.483-1.229,2.966-1.843,4.451c-0.611,1.476-1.221,2.951-1.831,4.425c-0.606,1.467-1.212,2.931-1.818,4.396
		c-0.6,1.451-1.201,2.905-1.801,4.356c-0.594,1.438-1.189,2.875-1.784,4.312c-0.587,1.422-1.176,2.842-1.764,4.264
		c-0.581,1.403-1.162,2.805-1.744,4.208c-0.573,1.381-1.146,2.764-1.721,4.146c-0.565,1.359-1.13,2.72-1.696,4.08
		c-0.557,1.335-1.113,2.671-1.671,4.006c-0.546,1.311-1.094,2.621-1.642,3.93c-0.536,1.28-1.073,2.563-1.611,3.844
		c-0.524,1.251-1.05,2.502-1.577,3.753c-0.512,1.218-1.025,2.438-1.54,3.655c-0.5,1.184-0.999,2.366-1.5,3.551
		c-0.484,1.146-0.97,2.294-1.455,3.439c-0.469,1.107-0.938,2.216-1.408,3.322c-0.452,1.067-0.903,2.133-1.355,3.2
		c-0.434,1.022-0.867,2.045-1.3,3.068c-0.414,0.977-0.827,1.954-1.24,2.933c-0.394,0.93-0.786,1.859-1.177,2.792
		c-0.371,0.881-0.742,1.765-1.111,2.648c-0.348,0.833-0.696,1.667-1.042,2.5c-0.325,0.785-0.649,1.568-0.971,2.354
		c-0.302,0.735-0.602,1.471-0.899,2.207c-0.278,0.687-0.554,1.374-0.828,2.063c-0.255,0.639-0.508,1.278-0.758,1.921
		c-0.232,0.594-0.462,1.189-0.69,1.786c-0.21,0.553-0.419,1.107-0.625,1.663c-0.191,0.514-0.38,1.029-0.567,1.546
		c-0.174,0.48-0.345,0.961-0.514,1.444c-0.158,0.45-0.314,0.903-0.468,1.354c-0.805,2.384-2.02,5.075-1.492,7.644
		C-1158.027-407.469-1157.938-407.189-1157.819-406.923z"/>
</g>
<path d="M-508,1182.393"/>
<polygon fill="#FFFFFF" stroke="#F7931E" stroke-width="6" stroke-miterlimit="10" points="434.413,-422.922 -83.98,-451.433 
	-43.306,-819.303 448,-881 "/>
<polygon fill="#FFFFFF" stroke="#F7931E" stroke-width="6" stroke-miterlimit="10" points="391,-422.922 -125.98,-451.433 
	-43.306,-819.303 391,-900 "/>
<g>
	<path fill="#F7931E" d="M335.041-520.589c3.399,0,6.314,2.915,6.314,6.802c0,3.399-2.915,6.314-6.314,6.314h-80.154
		c-45.661,0-83.067-37.406-83.067-83.068v-182.165c0-3.401,2.915-6.315,6.314-6.315c3.887,0,6.802,2.914,6.802,6.315v182.165
		c0,38.378,31.576,69.952,69.951,69.952h73.838H335.041z"/>
	<path fill="#F7931E" d="M31.512-511.073c0.165,0.373,0.387,0.726,0.648,1.021c1.049,1.189,2.63,1.978,4.226,1.978
		c2.428,0,4.301-0.771,5.273-3.202L71.221-582H175v-13H76.079l64.123-153.518c2.43-5.828,7.184-10.45,12.527-14.337l9.193-3.834
		l8.781-1.302c1.636,0,2.858,0.133,4.431,0.351l4.406-11.257c-1.598-0.165-8.813-0.443-10.422-0.443
		c-8.258,0-14.079,1.701-21.365,6.074l-1.722,0.931c-7.773,4.858-13.116,11.659-16.518,19.918c-0.079,0.19-0.158,0.382-0.237,0.573
		c-0.083,0.199-0.166,0.398-0.248,0.598c-0.089,0.216-0.179,0.432-0.269,0.648c-0.1,0.24-0.2,0.482-0.301,0.723
		c-0.114,0.271-0.227,0.545-0.341,0.818c-0.13,0.313-0.26,0.624-0.39,0.936c-0.149,0.355-0.299,0.713-0.446,1.069
		c-0.171,0.405-0.339,0.813-0.51,1.218c-0.191,0.461-0.385,0.92-0.576,1.381c-0.216,0.517-0.432,1.033-0.646,1.549
		c-0.241,0.575-0.481,1.15-0.722,1.727c-0.264,0.634-0.529,1.27-0.794,1.903c-0.29,0.694-0.58,1.388-0.87,2.083
		c-0.313,0.752-0.627,1.504-0.942,2.258c-0.337,0.81-0.674,1.619-1.012,2.429c-0.36,0.864-0.72,1.729-1.081,2.593
		c-0.381,0.916-0.763,1.833-1.144,2.749c-0.4,0.965-0.803,1.929-1.203,2.894c-0.42,1.01-0.84,2.02-1.258,3.029
		c-0.438,1.052-0.875,2.103-1.311,3.154c-0.453,1.089-0.905,2.178-1.356,3.267c-0.467,1.124-0.935,2.247-1.4,3.37
		c-0.479,1.154-0.959,2.309-1.439,3.462c-0.49,1.183-0.98,2.364-1.472,3.546c-0.501,1.207-1.001,2.414-1.504,3.621
		c-0.51,1.23-1.022,2.459-1.532,3.689c-0.52,1.25-1.04,2.5-1.56,3.75c-0.527,1.269-1.056,2.537-1.585,3.806
		c-0.534,1.286-1.068,2.571-1.606,3.857c-0.541,1.302-1.084,2.603-1.627,3.904c-0.548,1.315-1.096,2.633-1.646,3.948
		c-0.555,1.33-1.11,2.66-1.666,3.99c-0.561,1.344-1.123,2.687-1.684,4.029c-0.567,1.355-1.133,2.711-1.699,4.066
		c-0.573,1.367-1.144,2.734-1.715,4.102c-0.576,1.377-1.152,2.755-1.729,4.133c-0.58,1.387-1.16,2.774-1.739,4.162
		c-0.583,1.396-1.168,2.791-1.751,4.188c-0.585,1.402-1.172,2.807-1.759,4.209c-0.589,1.41-1.177,2.82-1.765,4.229
		c-0.59,1.415-1.18,2.828-1.769,4.242c-0.59,1.417-1.181,2.834-1.771,4.252s-1.181,2.837-1.771,4.255
		c-0.589,1.418-1.179,2.836-1.768,4.254c-0.587,1.414-1.175,2.83-1.762,4.246c-0.585,1.41-1.17,2.822-1.755,4.233
		c-0.582,1.405-1.163,2.81-1.745,4.214c-0.578,1.396-1.156,2.794-1.733,4.189c-0.574,1.387-1.147,2.773-1.721,4.16
		c-0.568,1.373-1.137,2.75-1.705,4.123c-0.562,1.361-1.125,2.722-1.688,4.082c-0.556,1.346-1.113,2.689-1.67,4.035
		c-0.55,1.328-1.1,2.655-1.65,3.983c-0.542,1.308-1.085,2.616-1.629,3.925c-0.535,1.286-1.07,2.574-1.606,3.861
		c-0.527,1.264-1.053,2.529-1.581,3.792c-0.518,1.241-1.036,2.481-1.554,3.72c-0.508,1.213-1.016,2.426-1.525,3.639
		c-0.497,1.184-0.995,2.369-1.493,3.553c-0.485,1.152-0.971,2.307-1.458,3.459c-0.473,1.121-0.945,2.24-1.419,3.361
		c-0.458,1.086-0.918,2.172-1.377,3.256c-0.444,1.049-0.888,2.098-1.333,3.145c-0.428,1.011-0.854,2.02-1.282,3.029
		c-0.411,0.969-0.821,1.937-1.231,2.904c-0.392,0.924-0.783,1.851-1.174,2.776c-0.372,0.88-0.744,1.761-1.114,2.643
		c-0.351,0.834-0.702,1.671-1.051,2.507c-0.33,0.789-0.659,1.578-0.987,2.366c-0.308,0.743-0.614,1.485-0.919,2.229
		c-0.286,0.695-0.569,1.392-0.851,2.089c-0.263,0.65-0.524,1.3-0.784,1.952c-0.242,0.604-0.48,1.21-0.718,1.818
		c-0.22,0.563-0.438,1.126-0.653,1.69c-0.2,0.523-0.397,1.049-0.592,1.574c-0.181,0.486-0.36,0.975-0.537,1.463
		c-0.165,0.455-0.327,0.91-0.487,1.367c-0.149,0.427-0.297,0.855-0.443,1.283c-0.762,2.256-1.912,4.803-1.413,7.234
		C31.314-511.59,31.399-511.326,31.512-511.073z"/>
</g>
<path fill="none" stroke="#330000" stroke-width="14" stroke-miterlimit="10" d="M-1384.314,632.031
	c-3.028-0.313-15.744-0.947-18.794-0.947c-15.65,0-27.037,4.247-40.848,12.535l-3.209,1.798
	c-14.732,9.208-24.833,22.114-31.279,37.767c-0.151,0.361-0.287,0.733-0.437,1.096c-0.157,0.378-0.307,0.76-0.464,1.137
	c-0.168,0.409-0.336,0.82-0.506,1.231c-0.188,0.456-0.378,0.915-0.568,1.37c-0.217,0.516-0.429,1.033-0.645,1.552
	c-0.246,0.593-0.491,1.184-0.738,1.774c-0.283,0.674-0.566,1.351-0.846,2.025c-0.324,0.769-0.642,1.541-0.966,2.309
	c-0.363,0.873-0.729,1.744-1.092,2.617c-0.409,0.979-0.82,1.958-1.225,2.936c-0.457,1.09-0.913,2.18-1.368,3.271
	c-0.5,1.201-1.003,2.406-1.507,3.607c-0.548,1.316-1.099,2.631-1.647,3.948c-0.592,1.425-1.188,2.851-1.786,4.278
	c-0.639,1.535-1.279,3.069-1.917,4.604c-0.683,1.639-1.364,3.277-2.049,4.914c-0.722,1.736-1.444,3.475-2.167,5.21
	c-0.759,1.829-1.521,3.655-2.28,5.483c-0.796,1.914-1.592,3.828-2.386,5.742c-0.829,1.993-1.659,3.984-2.484,5.978
	c-0.859,2.063-1.714,4.128-2.569,6.191c-0.887,2.13-1.773,4.259-2.654,6.387c-0.911,2.188-1.817,4.376-2.728,6.562
	c-0.929,2.241-1.858,4.48-2.791,6.721c-0.948,2.287-1.897,4.574-2.85,6.862c-0.966,2.332-1.936,4.66-2.902,6.992
	c-0.986,2.369-1.973,4.738-2.958,7.107c-1,2.404-2.002,4.808-3.004,7.212c-1.012,2.438-2.025,4.874-3.044,7.312
	c-1.025,2.467-2.055,4.933-3.083,7.399c-1.037,2.493-2.077,4.99-3.119,7.482c-1.053,2.521-2.104,5.042-3.156,7.563
	c-1.063,2.547-2.128,5.092-3.19,7.637c-1.078,2.569-2.149,5.138-3.221,7.707c-1.084,2.591-2.169,5.182-3.25,7.773
	c-1.092,2.609-2.184,5.221-3.276,7.832c-1.1,2.629-2.199,5.259-3.298,7.889c-1.105,2.645-2.213,5.289-3.318,7.937
	c-1.108,2.657-2.223,5.319-3.333,7.977c-1.116,2.673-2.232,5.345-3.346,8.016c-1.118,2.683-2.236,5.36-3.352,8.04
	c-1.12,2.686-2.238,5.371-3.355,8.059c-1.12,2.688-2.24,5.377-3.357,8.064c-1.116,2.687-2.232,5.374-3.35,8.062
	c-1.112,2.681-2.227,5.364-3.339,8.048c-1.109,2.672-2.217,5.349-3.326,8.023c-1.101,2.663-2.204,5.324-3.307,7.986
	c-1.096,2.646-2.191,5.295-3.283,7.939c-1.088,2.628-2.177,5.256-3.263,7.885c-1.077,2.602-2.154,5.212-3.231,7.813
	c-1.064,2.58-2.132,5.158-3.2,7.737c-1.053,2.55-2.11,5.097-3.165,7.647c-1.042,2.517-2.084,5.032-3.127,7.549
	c-1.027,2.479-2.057,4.959-3.087,7.438c-1.014,2.438-2.028,4.879-3.043,7.318c-0.999,2.395-1.997,4.794-2.998,7.187
	c-0.981,2.353-1.962,4.703-2.945,7.05c-0.962,2.299-1.925,4.598-2.889,6.896c-0.942,2.243-1.886,4.49-2.83,6.733
	c-0.92,2.184-1.84,4.371-2.763,6.556c-0.896,2.124-1.792,4.245-2.689,6.37c-0.868,2.058-1.74,4.116-2.611,6.171
	c-0.84,1.987-1.683,3.976-2.525,5.959c-0.811,1.916-1.621,3.828-2.432,5.741c-0.777,1.836-1.555,3.671-2.332,5.505
	c-0.742,1.751-1.484,3.507-2.225,5.262c-0.705,1.667-1.411,3.337-2.11,5.008c-0.666,1.581-1.331,3.167-1.993,4.751
	c-0.624,1.496-1.249,2.991-1.871,4.485c-0.581,1.408-1.162,2.814-1.74,4.223c-0.542,1.318-1.081,2.638-1.614,3.959
	c-0.498,1.233-0.994,2.464-1.484,3.7c-0.459,1.146-0.911,2.293-1.362,3.446c-0.415,1.066-0.829,2.134-1.236,3.203
	c-0.379,0.992-0.755,1.988-1.124,2.984c-0.342,0.921-0.683,1.847-1.016,2.772c-0.313,0.862-0.622,1.725-0.923,2.591
	c-0.283,0.809-0.563,1.621-0.838,2.432c-1.444,4.275-3.624,9.103-2.678,13.711c0.102,0.496,0.263,0.996,0.476,1.476
	c0.314,0.707,0.735,1.375,1.229,1.936c1.988,2.255,4.986,3.748,8.008,3.748c4.603,0,8.153-1.46,9.993-6.068l56.028-134.038
	l9.206-24.639l121.528-290.951c4.604-11.046,13.614-19.806,23.742-27.172l16.309-6.436l17.756-3.298c3.101,0,4.851-0.905,7.83-0.492
	c1.065-0.028,3.033,0.595,4.011,1.024c1.837,0.809,0.516,7.103,0.516,8.704c0,3.353,0,6.706,0,10.06c0,4.17,0,8.339,0,12.508
	c0,5.141,0,10.281,0,15.421c0,6.074,0,12.148,0,18.224c0,6.848,0,13.695,0,20.543c0,7.41,0,14.818,0,22.229
	c0,7.766,0,15.53,0,23.295c0,7.942,0,15.885,0,23.828c0,7.975,0,15.95,0,23.926c0,7.896,0,15.792,0,23.688c0,7.73,0,15.462,0,23.194
	c0,7.493,0,14.985,0,22.479c0,7.152,0,14.305,0,21.458c0,6.637,0,13.273,0,19.911c0,5.865,0,11.73,0,17.597
	c0,4.812,0,9.623,0,14.433c0,3.566,0,7.131,0,10.696c0,2.35,0,4.7,0,7.05c0,1.458,0,2.916,0,4.374c0,0.545,0,1.091,0,1.636
	c0,86.54,72.025,157.529,158.564,157.529h151.911c6.442,0,11.968-5.096,11.968-11.537c0-7.367-5.525-12.463-11.968-12.463h-11.972
	h-139.939c-72.729,0-133.564-60.795-133.564-133.529V653.668c-1-4.06-0.131-8.102-0.707-12.16c-0.557-3.918-2.889-6.135-6.908-7.107
	C-1375.268,633.275-1379.538,632.525-1384.314,632.031z"/>
<path fill="none" stroke="#330000" stroke-width="7" stroke-miterlimit="10" d="M1497.415-725.344
	c1.591-0.221,8.283-0.794,9.892-0.852c8.253-0.293,14.336,1.733,21.774,5.846l1.726,0.888c7.941,4.579,13.509,11.196,17.201,19.329
	c0.087,0.188,0.165,0.381,0.251,0.568c0.09,0.197,0.176,0.395,0.265,0.592c0.098,0.212,0.193,0.426,0.291,0.639
	c0.108,0.237,0.216,0.477,0.325,0.713c0.124,0.268,0.245,0.536,0.37,0.806c0.14,0.308,0.28,0.614,0.421,0.921
	c0.162,0.351,0.324,0.703,0.484,1.053c0.185,0.399,0.367,0.801,0.553,1.199c0.208,0.454,0.417,0.906,0.625,1.359
	c0.233,0.51,0.469,1.018,0.701,1.525c0.261,0.566,0.521,1.133,0.782,1.699c0.286,0.625,0.574,1.25,0.862,1.875
	c0.313,0.684,0.629,1.365,0.942,2.051c0.339,0.74,0.68,1.48,1.021,2.223c0.365,0.797,0.732,1.594,1.098,2.391
	c0.391,0.852,0.78,1.703,1.172,2.553c0.414,0.902,0.827,1.805,1.241,2.707c0.435,0.95,0.87,1.898,1.305,2.85
	c0.456,0.994,0.911,1.988,1.366,2.982c0.474,1.035,0.948,2.07,1.421,3.105c0.492,1.072,0.981,2.145,1.471,3.217
	c0.508,1.106,1.015,2.213,1.52,3.318c0.521,1.137,1.04,2.273,1.562,3.408c0.531,1.164,1.063,2.328,1.598,3.491
	c0.542,1.188,1.086,2.378,1.631,3.565c0.554,1.212,1.108,2.422,1.662,3.633c0.564,1.23,1.129,2.461,1.692,3.692
	c0.572,1.249,1.146,2.498,1.719,3.747c0.58,1.266,1.159,2.532,1.743,3.798c0.587,1.282,1.176,2.563,1.764,3.844
	c0.594,1.295,1.189,2.592,1.785,3.887c0.603,1.31,1.204,2.619,1.806,3.929c0.608,1.323,1.218,2.645,1.825,3.967
	c0.616,1.334,1.229,2.669,1.843,4.003c0.621,1.346,1.241,2.692,1.859,4.038c0.625,1.355,1.25,2.712,1.874,4.069
	c0.629,1.365,1.258,2.731,1.888,4.098c0.632,1.374,1.266,2.748,1.898,4.123c0.634,1.381,1.271,2.763,1.907,4.144
	c0.639,1.388,1.276,2.777,1.914,4.164c0.64,1.394,1.279,2.785,1.918,4.177c0.642,1.395,1.281,2.791,1.921,4.187
	c0.641,1.396,1.281,2.793,1.921,4.189c0.64,1.396,1.278,2.792,1.918,4.188c0.637,1.392,1.274,2.786,1.911,4.181
	c0.635,1.389,1.27,2.779,1.904,4.168c0.631,1.384,1.262,2.767,1.894,4.149c0.628,1.375,1.255,2.751,1.88,4.125
	c0.623,1.366,1.246,2.731,1.868,4.096c0.617,1.352,1.234,2.708,1.851,4.06c0.609,1.341,1.222,2.68,1.833,4.02
	c0.603,1.325,1.208,2.648,1.812,3.973c0.597,1.308,1.193,2.615,1.791,3.922c0.588,1.288,1.177,2.576,1.768,3.865
	c0.58,1.266,1.161,2.535,1.741,3.802c0.572,1.244,1.143,2.49,1.716,3.733c0.562,1.222,1.122,2.443,1.685,3.662
	c0.551,1.194,1.102,2.388,1.653,3.583c0.538,1.164,1.078,2.332,1.618,3.497c0.525,1.134,1.052,2.271,1.58,3.405
	c0.512,1.104,1.023,2.205,1.537,3.309c0.496,1.068,0.994,2.138,1.492,3.205c0.48,1.032,0.962,2.064,1.443,3.095
	c0.463,0.995,0.927,1.987,1.39,2.981c0.444,0.954,0.889,1.906,1.333,2.859c0.424,0.909,0.849,1.821,1.271,2.732
	c0.403,0.867,0.807,1.733,1.207,2.602c0.381,0.821,0.761,1.645,1.14,2.469c0.356,0.776,0.715,1.553,1.07,2.329
	c0.333,0.731,0.666,1.462,0.997,2.194c0.311,0.685,0.619,1.371,0.925,2.058c0.286,0.641,0.57,1.28,0.853,1.923
	c0.264,0.596,0.522,1.192,0.782,1.791c0.239,0.555,0.478,1.11,0.712,1.667c0.219,0.517,0.436,1.034,0.648,1.552
	c0.198,0.48,0.395,0.961,0.588,1.443c0.182,0.449,0.36,0.898,0.535,1.35c0.165,0.42,0.328,0.844,0.488,1.266
	c0.842,2.228,2.081,4.732,1.669,7.18c-0.044,0.264-0.12,0.53-0.224,0.787c-0.152,0.379-0.361,0.738-0.611,1.044
	c-1.006,1.226-2.559,2.069-4.152,2.126c-2.428,0.086-4.326-0.617-5.383-3.013l-32.056-69.629l-5.315-12.819l-69.534-151.144
	c-2.635-5.738-7.55-10.188-13.028-13.883l-8.721-3.088l-9.424-1.406c-1.635,0.059-2.575-0.387-4.139-0.113
	c-0.563,0.006-1.728,0.375-2.234,0.621c-0.954,0.461-0.278,3.76-0.248,4.604c0.063,1.769,0.126,3.537,0.188,5.305
	c0.078,2.199,0.156,4.397,0.234,6.596c0.097,2.711,0.192,5.422,0.289,8.131c0.114,3.203,0.228,6.406,0.342,9.61
	c0.128,3.61,0.256,7.222,0.385,10.833c0.139,3.906,0.277,7.813,0.416,11.721c0.146,4.094,0.291,8.189,0.437,12.283
	c0.149,4.188,0.298,8.376,0.446,12.565c0.149,4.205,0.299,8.411,0.448,12.616c0.148,4.164,0.296,8.327,0.444,12.49
	c0.145,4.077,0.29,8.154,0.435,12.23c0.141,3.951,0.28,7.902,0.421,11.854c0.134,3.771,0.269,7.543,0.402,11.314
	c0.124,3.5,0.248,7,0.373,10.5c0.109,3.093,0.22,6.186,0.329,9.279c0.091,2.537,0.181,5.074,0.271,7.61
	c0.067,1.88,0.134,3.76,0.2,5.64c0.045,1.239,0.089,2.478,0.133,3.717c0.027,0.769,0.055,1.538,0.082,2.307
	c0.01,0.288,0.021,0.575,0.03,0.862c1.621,45.633-34.753,84.329-80.386,85.95l-80.104,2.846c-3.397,0.121-6.412-2.631-6.532-6.027
	c-0.139-3.885,2.674-6.844,6.07-6.965l6.313-0.224l73.792-2.622c38.351-1.362,69.218-34.143,67.854-72.496l-6.479-182.344
	c0.228-2.151-0.038-4.275,0.188-6.428c0.221-2.076,1.432-3.289,3.533-3.877C1492.645-724.518,1494.905-724.993,1497.415-725.344z"/>
<image overflow="visible" width="326" height="310" xlink:href="81CDAD51.jpg"  transform="matrix(1 0 0 1 -729.6733 112.252)">
</image>
<path opacity="0.3" fill="#FF6666" d="M-645.45-122.758c0,0-0.315-27.749,21.007-43.492c0,0,11.962-14.262,49.154-14.186
	c37.191,0.077,68.183-0.852,68.183-0.852s-1.218,24.748-18.536,40.946c0,0-15.315,16.394-42.813,16.707L-645.45-122.758z"/>
<linearGradient id="SVGID_3_" gradientUnits="userSpaceOnUse" x1="547.1401" y1="346.4741" x2="728.8271" y2="346.4741">
	<stop  offset="0" style="stop-color:#E800E9"/>
	<stop  offset="1" style="stop-color:#31003F"/>
</linearGradient>
<path opacity="0.5" fill="url(#SVGID_3_)" d="M650.473,139.689c0,0-66.623,32.821-93.832,94.602c0,0-26.117,44.219,8.255,140.87
	c34.372,96.645,60.425,178.098,60.425,178.098s63.27-25.919,89.479-85.834c0,0,28.591-54.899,4.137-126.698L650.473,139.689z"/>
<linearGradient id="SVGID_4_" gradientUnits="userSpaceOnUse" x1="606.75" y1="383.417" x2="884.4385" y2="383.417">
	<stop  offset="0" style="stop-color:#E800E9"/>
	<stop  offset="1" style="stop-color:#31003F"/>
</linearGradient>
<path opacity="0.5" fill="url(#SVGID_4_)" d="M626.974,553.83c0,0-32.138-66.957-15.388-132.354c0,0,6.765-50.908,93.485-105.701
	c86.714-54.793,157.503-102.771,157.503-102.771s33.761,59.458,17.379,122.77c0,0-11.415,60.836-74.986,102.209L626.974,553.83z"/>
<linearGradient id="SVGID_5_" gradientUnits="userSpaceOnUse" x1="386.5078" y1="309.4868" x2="669.5586" y2="309.4868">
	<stop  offset="0" style="stop-color:#E800E9"/>
	<stop  offset="1" style="stop-color:#31003F"/>
</linearGradient>
<path opacity="0.5" fill="url(#SVGID_5_)" d="M409.905,478.879c0,0-41.213-64.53-14.245-132.48c0,0,7.203-50.847,94.391-104.893
	c87.186-54.043,158.384-101.411,158.384-101.411s33.245,59.743,16.319,122.914c0,0-11.935,60.735-75.861,101.561L409.905,478.879z"
	/>
<path opacity="0.9" fill="none" stroke="#660099" stroke-width="20" stroke-miterlimit="10" d="M-465.457,768.689
	c0,0-89.104,43.896-125.494,126.523c0,0-34.93,59.139,11.041,188.403c45.97,129.256,80.814,238.194,80.814,238.194
	s84.618-34.665,119.673-114.798c0,0,38.238-73.424,5.532-169.45L-465.457,768.689z"/>
<path opacity="0.9" fill="none" stroke="#660099" stroke-width="20" stroke-miterlimit="10" d="M-496.886,1322.574
	c0,0-42.982-89.551-20.58-177.014c0,0,9.048-68.086,125.03-141.368c115.974-73.282,210.649-137.45,210.649-137.45
	s45.153,79.521,23.243,164.197c0,0-15.267,81.364-100.289,136.697L-496.886,1322.574z"/>
<path opacity="0.9" fill="none" stroke="#660099" stroke-width="20" stroke-miterlimit="10" d="M-787.2,1222.332
	c0,0-55.119-86.305-19.051-177.184c0,0,9.633-68.004,126.242-140.287c116.605-72.278,211.828-135.63,211.828-135.63
	s44.463,79.902,21.826,164.39c0,0-15.962,81.229-101.459,135.83L-787.2,1222.332z"/>
<path fill="#FF6666" d="M-465.913-166.42c0,0-21.314-17.787-19.44-44.225c0,0-2.453-14.615,14.209-37.815
	c2.014-2.805,26.185-31.762,28.796-34.808c24.211-28.231,43.628-52.403,43.628-52.403s18.036,17.005,19.108,40.692
	c0,0,2.529,22.299-15.09,43.413l-35.041,41.803L-465.913-166.42z"/>
<path opacity="0.3" fill="#FF6666" d="M-555.456-337.668c0,0-25.625-10.68-48.203,3.202c-4.2,2.582-8.078,4.577-11.693,8.213
	c-8.439,8.487-14.472,18.965-19.862,29.557c-5.415,10.641-10.832,21.291-16.196,31.956c-9.306,18.5-17.159,37.675-25.636,56.558
	c-1.179,2.625-2.315,5.267-3.471,7.9c-0.276,0.629,18.378,2.997,19.258,3.027c11.419,0.384,22.739-2.441,31.779-9.652
	c19.299-15.395,32.948-37.124,43.897-58.938c10.633-21.185,18.382-43.621,27.481-65.471
	C-557.971-331.633-555.457-337.668-555.456-337.668z"/>
<image overflow="visible" width="800" height="600" xlink:href="../P 2 C Solution logo/one_1.jpg"  transform="matrix(1 0 0 1 -1558.2129 1388.332)">
</image>
</svg>
